<?xml version="1.0" encoding="UTF-8" standalone="no"?>
<!DOCTYPE svg PUBLIC "-//W3C//DTD SVG 1.1//EN" "http://www.w3.org/Graphics/SVG/1.1/DTD/svg11.dtd">
<svg width="1685px" height="238px" version="1.1" xmlns="http://www.w3.org/2000/svg" xmlns:xlink="http://www.w3.org/1999/xlink" xml:space="preserve" xmlns:serif="http://www.serif.com/" style="fill-rule:evenodd;clip-rule:evenodd;stroke-linejoin:round;stroke-miterlimit:2;">
    <g transform="matrix(1,0,0,1,-409.521,-714.405)">
        <g transform="matrix(1,0,0,1,28.5448,-374.371)">
            <path d="M397.311,1250.75C391.463,1253.36 384.595,1250.74 381.985,1244.89C379.375,1239.04 382.005,1232.17 387.853,1229.56C516.296,1165.05 628.518,1126.45 729.93,1106.34C785.63,1095.3 837.962,1089.93 887.733,1088.95C995.363,1086.84 1090.81,1104.11 1181.01,1129.63C1243.64,1147.36 1303.61,1169.42 1363.96,1190.74C1449.92,1221.11 1536.35,1250.62 1633.61,1264.84C1751.47,1282.07 1884.37,1278.54 2050.08,1229.18C2056.13,1227.1 2062.74,1230.32 2064.83,1236.38C2066.91,1242.44 2063.69,1249.05 2057.63,1251.13C1889.48,1317.06 1751.19,1333.15 1627.1,1323.96C1524.19,1316.34 1431.29,1291.56 1339.91,1263.07C1279.78,1244.32 1220.32,1224.1 1158.91,1205.87C1075.05,1180.97 987.484,1160.36 887.116,1156.22C752.519,1150.67 595.954,1172.15 397.311,1250.75Z" style="fill:rgb(68,68,68);"/>
        </g>
    </g>
</svg>