<?xml version="1.0" encoding="UTF-8" standalone="no"?><!DOCTYPE svg PUBLIC "-//W3C//DTD SVG 1.1//EN" "http://www.w3.org/Graphics/SVG/1.1/DTD/svg11.dtd"><svg width="100%" height="100%" viewBox="0 0 29 29" version="1.1" xmlns="http://www.w3.org/2000/svg" xmlns:xlink="http://www.w3.org/1999/xlink" xml:space="preserve" xmlns:serif="http://www.serif.com/" style="fill-rule:evenodd;clip-rule:evenodd;stroke-linejoin:round;stroke-miterlimit:2;"><rect x="0" y="0" width="28.306" height="28.306" style="fill:none;"/><path d="M25.501,8.909c-0,-3.369 -2.735,-6.104 -6.104,-6.104l-10.488,0c-3.369,0 -6.104,2.735 -6.104,6.104l0,10.488c0,3.369 2.735,6.104 6.104,6.104l10.488,-0c3.369,-0 6.104,-2.735 6.104,-6.104l-0,-10.488Zm-2.272,-0l-0,10.488c-0,2.115 -1.717,3.832 -3.832,3.832l-10.488,-0c-2.115,-0 -3.832,-1.717 -3.832,-3.832l0,-10.488c0,-2.115 1.717,-3.832 3.832,-3.832l10.488,0c2.115,0 3.832,1.717 3.832,3.832Zm-9.076,-0.675c3.267,-0 5.919,2.652 5.919,5.919c-0,3.267 -2.652,5.919 -5.919,5.919c-3.267,-0 -5.919,-2.652 -5.919,-5.919c-0,-3.267 2.652,-5.919 5.919,-5.919Zm-0,2.272c2.013,-0 3.647,1.634 3.647,3.647c-0,2.013 -1.634,3.647 -3.647,3.647c-2.013,-0 -3.647,-1.634 -3.647,-3.647c-0,-2.013 1.634,-3.647 3.647,-3.647Zm6.039,-3.686c0.759,0 1.374,0.616 1.374,1.374c0,0.759 -0.615,1.375 -1.374,1.375c-0.758,-0 -1.374,-0.616 -1.374,-1.375c-0,-0.758 0.616,-1.374 1.374,-1.374Z" style="fill:#fff;"/></svg>