<?xml version="1.0" encoding="UTF-8" standalone="no"?><!DOCTYPE svg PUBLIC "-//W3C//DTD SVG 1.1//EN" "http://www.w3.org/Graphics/SVG/1.1/DTD/svg11.dtd"><svg width="100%" height="100%" viewBox="0 0 29 29" version="1.1" xmlns="http://www.w3.org/2000/svg" xmlns:xlink="http://www.w3.org/1999/xlink" xml:space="preserve" xmlns:serif="http://www.serif.com/" style="fill-rule:evenodd;clip-rule:evenodd;stroke-linejoin:round;stroke-miterlimit:2;"><rect x="0" y="-0" width="28.306" height="28.306" style="fill:none;"/><path d="M9.516,24.274c9.401,-0 14.541,-7.79 14.541,-14.54c-0,-0.223 -0,-0.446 -0.011,-0.658c0.996,-0.72 1.865,-1.621 2.554,-2.649c-0.911,0.403 -1.897,0.678 -2.936,0.805c1.06,-0.635 1.866,-1.632 2.247,-2.829c-0.985,0.583 -2.077,1.007 -3.243,1.24c-0.932,-0.996 -2.257,-1.611 -3.73,-1.611c-2.819,-0 -5.108,2.289 -5.108,5.108c-0,0.403 0.042,0.795 0.137,1.166c-4.249,-0.212 -8.012,-2.247 -10.534,-5.341c-0.434,0.752 -0.689,1.632 -0.689,2.564c0,1.77 0.901,3.339 2.279,4.25c-0.837,-0.021 -1.622,-0.254 -2.311,-0.636l0,0.064c0,2.48 1.76,4.536 4.102,5.012c-0.424,0.117 -0.88,0.181 -1.346,0.181c-0.329,-0 -0.647,-0.032 -0.964,-0.096c0.646,2.035 2.532,3.508 4.769,3.55c-1.749,1.368 -3.953,2.184 -6.349,2.184c-0.413,-0 -0.816,-0.022 -1.218,-0.075c2.236,1.463 4.928,2.311 7.81,2.311" style="fill:#fff;fill-rule:nonzero;"/></svg>