<?xml version="1.0" encoding="UTF-8" standalone="no"?><!DOCTYPE svg PUBLIC "-//W3C//DTD SVG 1.1//EN" "http://www.w3.org/Graphics/SVG/1.1/DTD/svg11.dtd"><svg width="100%" height="100%" viewBox="0 0 29 29" version="1.1" xmlns="http://www.w3.org/2000/svg" xmlns:xlink="http://www.w3.org/1999/xlink" xml:space="preserve" xmlns:serif="http://www.serif.com/" style="fill-rule:evenodd;clip-rule:evenodd;stroke-linejoin:round;stroke-miterlimit:2;"><rect x="0" y="0" width="28.306" height="28.306" style="fill:none;"/><path d="M10.829,4.035c1.046,-0.344 2.163,-0.53 3.324,-0.53c1.161,-0 2.278,0.186 3.324,0.53l0.033,0.01l0.001,0.001l0.031,0.01l0.002,0.001l0.031,0.01l0.002,0.001l0.031,0.01l0.001,0.001l0.032,0.011l0,-0c2.734,0.949 4.963,2.981 6.173,5.582c0.329,0.708 0.583,1.457 0.75,2.239l0.001,0.004l0.007,0.033l0.001,0.004l0.006,0.029l0.001,0.007l0.006,0.027l0.002,0.007l0.005,0.026l0.002,0.009l0.004,0.024l0.002,0.01l0.005,0.023l0.002,0.011l0.004,0.023l0.002,0.011l0.005,0.022l0.002,0.012l0.004,0.022l0.002,0.012l0.004,0.021l0.002,0.012l0.004,0.022l0.002,0.012l0.004,0.022l0.002,0.012l0.004,0.022l0.002,0.012l0.004,0.022l0.002,0.011l0.003,0.023l0.002,0.011l0.004,0.023l0.002,0.011l0.003,0.024l0.002,0.01l0.004,0.027l0.001,0.007l0.005,0.034l0.005,0.034l0.001,0.002l0.004,0.032l0.002,0.009l0.003,0.025l0.002,0.012l0.003,0.022l0.002,0.013l0.002,0.021l0.002,0.014l0.003,0.02l0.002,0.014l0.002,0.02l0.002,0.015l0.002,0.019l0.002,0.015l0.003,0.019l0.001,0.015l0.003,0.019l0.001,0.016l0.003,0.018l0.001,0.016l0.002,0.019l0.002,0.015l0.002,0.019l0.002,0.016l0.002,0.018l0.001,0.016l0.002,0.019l0.002,0.015l0.002,0.019l0.001,0.016l0.002,0.019l0.001,0.015l0.002,0.019l0.002,0.016l0.001,0.019l0.002,0.015l0.001,0.02l0.002,0.014l0.001,0.022l0.001,0.013l0.002,0.025l0.001,0.01l0.003,0.034l0,0.007l0.002,0.028l0.001,0.012l0.001,0.022l0.001,0.015l0.002,0.02l0.001,0.015l0.001,0.02l0.001,0.015l0.001,0.019l0.001,0.016l0.001,0.019l0.001,0.016l0.001,0.019l0,0.016l0.001,0.019l0.001,0.016l0.001,0.019l0.001,0.016l0,0.019l0.001,0.016l0.001,0.019l0,0.016l0.001,0.019l0,0.016l0.001,0.019l0.001,0.016l0,0.019l0.001,0.016l-0,0.019l0,0.016l0.001,0.019l0,0.016l0,0.019l0.001,0.016l0,0.02l0,0.015l0,0.02l0.001,0.015l-0,0.021l-0,0.014l0,0.024l0,0.012l0,0.035l0,0.036l0,0.011l-0,0.024l-0,0.014l-0,0.022l-0.001,0.015l0,0.021l-0,0.015l-0,0.02l-0.001,0.016l0,0.02l-0,0.016l-0.001,0.02l-0,0.016l-0.001,0.019l-0,0.016l-0.001,0.02l-0,0.016l-0.001,0.02l-0,0.015l-0.001,0.021l-0.001,0.015l-0,0.022l-0.001,0.013l-0.001,0.027l-0,0.009l-0.002,0.035l-0,0.006l-0.002,0.029l-0,0.012l-0.002,0.024l-0,0.013l-0.002,0.022l-0,0.014l-0.002,0.021l-0.001,0.015l-0.001,0.021l-0.001,0.015l-0.001,0.02l-0.001,0.015l-0.002,0.021l-0.001,0.014l-0.001,0.021l-0.001,0.014l-0.002,0.022l-0.001,0.013l-0.002,0.023l-0.001,0.012l-0.002,0.025l-0.001,0.01l-0.002,0.028l-0.001,0.007l-0.003,0.036l-0.003,0.036l-0.001,0.003l-0.003,0.032l-0.001,0.008l-0.002,0.027l-0.001,0.01l-0.003,0.025l-0.001,0.011l-0.003,0.024l-0.001,0.011l-0.003,0.024l-0.001,0.011l-0.003,0.024l-0.001,0.011l-0.003,0.024l-0.001,0.011l-0.003,0.025l-0.001,0.01l-0.004,0.026l-0.001,0.009l-0.003,0.028l-0.001,0.006l-0.004,0.033l-0.001,0.002c-0.006,0.047 -0.013,0.094 -0.019,0.141l-0.001,0.003l-0.005,0.032l-0,0.005l-0.005,0.03l-0.001,0.006l-0.004,0.029l-0.001,0.006l-0.005,0.029l-0.001,0.006l-0.005,0.029l-0.001,0.006l-0.004,0.029l-0.001,0.006l-0.005,0.03l-0.001,0.004l-0.006,0.032l-0,0.003c-0.014,0.081 -0.03,0.163 -0.046,0.244l-0,0.001l-0.007,0.034l-0,0.002l-0.007,0.032l-0,0.003l-0.007,0.032l-0.001,0.003l-0.006,0.031l-0.001,0.003l-0.007,0.033l-0,0.001l-0.008,0.034l-0.002,0.01c-0.171,0.775 -0.427,1.518 -0.758,2.22l-0.006,0.013c-1.231,2.604 -3.486,4.63 -6.244,5.556l0,0.001l-0.032,0.01l-0.001,0l-0.032,0.011c-1.046,0.344 -2.163,0.53 -3.324,0.53c-1.161,0 -2.278,-0.186 -3.324,-0.53l-0.033,-0.011l-0.001,0l-0.031,-0.01l-0.001,-0.001l-0.032,-0.01l-0.001,-0.001l-0.031,-0.011l-0.001,0c-1.613,-0.554 -3.052,-1.484 -4.21,-2.686l-0.003,-0.002l-0.02,-0.022l-0.005,-0.005l-0.018,-0.018l-0.006,-0.007l-0.016,-0.017l-0.008,-0.008l-0.014,-0.015l-0.009,-0.01l-0.014,-0.014l-0.009,-0.01l-0.013,-0.014l-0.01,-0.011l-0.012,-0.013l-0.011,-0.011l-0.011,-0.012l-0.011,-0.013l-0.01,-0.011l-0.013,-0.013l-0.009,-0.011l-0.013,-0.014l-0.008,-0.009l-0.014,-0.015l-0.007,-0.008l-0.015,-0.017l-0.005,-0.006l-0.017,-0.019l-0.002,-0.003c-0.53,-0.596 -0.993,-1.253 -1.379,-1.958l-0,-0l-0.015,-0.028l-0.001,-0.001l-0.015,-0.027l-0,-0.001l-0.015,-0.028l-0,-0.001l-0.015,-0.027l-0,-0.001c-0.029,-0.054 -0.058,-0.108 -0.085,-0.163l-0.005,-0.009l-0.008,-0.015l-0.007,-0.014l-0.006,-0.013l-0.009,-0.018l-0.006,-0.011l-0.009,-0.019l-0.005,-0.009l-0.01,-0.021l-0.004,-0.008l-0.011,-0.023l-0.004,-0.007l-0.011,-0.024l-0.003,-0.005l-0.012,-0.026l-0.002,-0.004l-0.013,-0.027l-0.001,-0.002l-0.014,-0.03l-0.006,-0.013c-0.332,-0.704 -0.589,-1.451 -0.76,-2.23l-0.008,-0.034l-0,-0.001l-0.007,-0.033l-0.001,-0.003l-0.007,-0.031l-0,-0.003l-0.007,-0.032l-0,-0.003l-0.007,-0.032l-0,-0.002l-0.007,-0.034l-0,-0.001c-0.017,-0.081 -0.032,-0.162 -0.046,-0.244l-0,-0.003l-0.006,-0.032l-0.001,-0.004l-0.005,-0.03l-0.001,-0.006l-0.005,-0.029l-0.001,-0.006l-0.004,-0.029l-0.001,-0.006l-0.005,-0.029l-0.001,-0.006l-0.004,-0.029l-0.001,-0.006l-0.005,-0.03l-0.001,-0.005l-0.004,-0.032l-0.001,-0.003c-0.007,-0.047 -0.013,-0.094 -0.02,-0.141l0,-0.002l-0.004,-0.033l-0.001,-0.006l-0.004,-0.028l-0.001,-0.009l-0.003,-0.026l-0.001,-0.01l-0.003,-0.025l-0.002,-0.011l-0.002,-0.024l-0.002,-0.011l-0.002,-0.024l-0.002,-0.011l-0.002,-0.024l-0.002,-0.011l-0.002,-0.024l-0.001,-0.011l-0.003,-0.025l-0.001,-0.01l-0.003,-0.027l-0,-0.008l-0.004,-0.032l0,-0.003l-0.003,-0.036l-0.003,-0.036l-0.001,-0.007l-0.002,-0.028l-0.001,-0.01l-0.002,-0.025l-0.001,-0.012l-0.002,-0.023l-0.001,-0.013l-0.002,-0.022l-0.001,-0.014l-0.002,-0.021l-0.001,-0.014l-0.001,-0.021l-0.001,-0.015l-0.001,-0.02l-0.001,-0.015l-0.002,-0.021l-0.001,-0.015l-0.001,-0.021l-0.001,-0.014l-0.001,-0.022l-0.001,-0.013l-0.001,-0.024l-0,-0.012l-0.002,-0.029l-0,-0.006l-0.002,-0.035l-0,-0.009l-0.001,-0.027l-0.001,-0.013l-0.001,-0.022l-0,-0.015l-0.001,-0.021l-0.001,-0.015l-0,-0.02l-0.001,-0.016l-0,-0.02l-0.001,-0.016l-0,-0.019l-0.001,-0.016l0,-0.02l-0,-0.016l-0.001,-0.02l0,-0.016l-0,-0.02l-0.001,-0.015l0,-0.021l0,-0.015l-0,-0.022l-0,-0.014l-0,-0.024l-0,-0.011l-0,-0.036l-0,-0.035l-0,-0.012l-0,-0.024l-0,-0.014l0,-0.021l0,-0.015l0,-0.02l0.001,-0.015l-0,-0.02l0,-0.016l0.001,-0.019l-0,-0.016l0,-0.019l0.001,-0.016l0,-0.019l0.001,-0.016l0,-0.019l0.001,-0.016l0,-0.019l0.001,-0.016l0,-0.019l0.001,-0.016l0.001,-0.019l0,-0.016l0.001,-0.019l0.001,-0.016l0.001,-0.019l0,-0.016l0.001,-0.019l0.001,-0.016l0.001,-0.019l0.001,-0.016l0.001,-0.019l0.001,-0.016l0.001,-0.019l0.001,-0.015l0.001,-0.02l0.001,-0.015l0.001,-0.02l0.001,-0.015l0.002,-0.022l0.001,-0.012l0.002,-0.028l0,-0.007l0.003,-0.034l0,-0.01l0.002,-0.025l0.001,-0.013l0.002,-0.022l0.001,-0.014l0.002,-0.02l0.001,-0.015l0.002,-0.019l0.001,-0.016l0.002,-0.019l0.002,-0.015l0.001,-0.019l0.002,-0.016l0.002,-0.019l0.001,-0.015l0.002,-0.019l0.002,-0.016l0.002,-0.018l0.002,-0.016l0.002,-0.019l0.001,-0.015l0.002,-0.019l0.002,-0.016l0.002,-0.018l0.002,-0.016l0.002,-0.019l0.002,-0.015l0.002,-0.019l0.002,-0.015l0.003,-0.019l0.001,-0.015l0.003,-0.02l0.002,-0.014l0.002,-0.02l0.002,-0.014l0.003,-0.021l0.002,-0.013l0.003,-0.022l0.002,-0.012l0.003,-0.025l0.001,-0.009l0.005,-0.032l0,-0.002l0.005,-0.034l0.006,-0.034l0.001,-0.007l0.004,-0.027l0.001,-0.01l0.004,-0.024l0.002,-0.011l0.004,-0.023l0.001,-0.011l0.004,-0.023l0.002,-0.011l0.004,-0.022l0.002,-0.012l0.004,-0.022l0.002,-0.012l0.004,-0.022l0.002,-0.012l0.004,-0.022l0.002,-0.012l0.004,-0.021l0.002,-0.012l0.004,-0.022l0.002,-0.012l0.004,-0.022l0.002,-0.011l0.005,-0.023l0.002,-0.011l0.004,-0.023l0.002,-0.01l0.005,-0.024l0.002,-0.009l0.005,-0.026l0.002,-0.007l0.005,-0.027l0.002,-0.007l0.006,-0.029l0,-0.004l0.008,-0.033c0.167,-0.783 0.421,-1.534 0.751,-2.243c1.214,-2.611 3.456,-4.649 6.205,-5.593l0.001,-0l0.032,-0.011l0.001,-0.001l0.031,-0.01l0.001,-0.001l0.032,-0.01l0.001,-0.001l0.033,-0.01Zm6.177,14.658l-5.707,0c0.3,1.447 0.744,2.718 1.307,3.723c0.501,0.094 1.018,0.142 1.547,0.142c0.528,0 1.045,-0.048 1.546,-0.142c0.564,-1.005 1.008,-2.277 1.307,-3.723Zm-8.229,0l-1.698,0c0.598,0.929 1.374,1.733 2.28,2.363c-0.232,-0.735 -0.427,-1.527 -0.582,-2.363Zm12.449,0l-1.698,0c-0.154,0.836 -0.349,1.627 -0.581,2.363c0.905,-0.63 1.681,-1.434 2.279,-2.363Zm-12.756,-6.778l-2.421,0c-0.197,0.713 -0.302,1.463 -0.302,2.238c0,0.796 0.111,1.567 0.319,2.297l2.409,0c-0.066,-0.744 -0.1,-1.512 -0.1,-2.297c0,-0.764 0.033,-1.512 0.095,-2.238Zm8.875,0l-6.384,0c-0.067,0.722 -0.102,1.471 -0.102,2.238c0,0.788 0.037,1.557 0.107,2.297l6.374,0c0.07,-0.74 0.106,-1.509 0.106,-2.297c0,-0.767 -0.034,-1.516 -0.101,-2.238Zm4.912,0l-2.421,0c0.062,0.726 0.095,1.474 0.095,2.238c-0,0.785 -0.035,1.553 -0.1,2.297l2.409,0c0.207,-0.73 0.318,-1.501 0.318,-2.297c0,-0.775 -0.105,-1.525 -0.301,-2.238Zm-12.898,-4.666c-0.925,0.644 -1.715,1.469 -2.318,2.423l1.725,0c0.156,-0.858 0.356,-1.67 0.593,-2.423Zm6.34,-1.36c-0.501,-0.093 -1.018,-0.142 -1.546,-0.142c-0.529,0 -1.046,0.049 -1.547,0.142c-0.571,1.02 -1.019,2.312 -1.319,3.783l5.732,0c-0.3,-1.471 -0.749,-2.763 -1.32,-3.783Zm3.248,1.36c0.237,0.753 0.436,1.565 0.592,2.423l1.725,0c-0.602,-0.954 -1.392,-1.779 -2.317,-2.423Z" style="fill:#fff;"/></svg>